<svg width="120" height="24" viewBox="0 0 120 24" fill="none" xmlns="http://www.w3.org/2000/svg">
<path fill-rule="evenodd" clip-rule="evenodd" d="M106.788 3.21009C107.236 2.13309 108.764 2.13309 109.212 3.21009L111.294 8.21709L116.698 8.65009C117.862 8.74309 118.334 10.1951 117.447 10.9551L113.33 14.4821L114.587 19.7551C114.858 20.8911 113.623 21.7881 112.627 21.1801L108 18.3541L103.373 21.1801C102.377 21.7881 101.142 20.8901 101.413 19.7551L102.67 14.4821L98.553 10.9551C97.666 10.1951 98.138 8.74309 99.302 8.65009L104.706 8.21709L106.788 3.21109V3.21009Z" fill="#FF912C"/>
<path fill-rule="evenodd" clip-rule="evenodd" d="M82.788 3.21009C83.236 2.13309 84.764 2.13309 85.212 3.21009L87.294 8.21709L92.698 8.65009C93.862 8.74309 94.334 10.1951 93.447 10.9551L89.33 14.4821L90.587 19.7551C90.858 20.8911 89.623 21.7881 88.627 21.1801L84 18.3541L79.373 21.1801C78.377 21.7881 77.142 20.8901 77.413 19.7551L78.67 14.4821L74.553 10.9551C73.666 10.1951 74.138 8.74309 75.302 8.65009L80.706 8.21709L82.788 3.21109V3.21009Z" fill="#FF912C"/>
<path fill-rule="evenodd" clip-rule="evenodd" d="M58.788 3.21009C59.236 2.13309 60.764 2.13309 61.212 3.21009L63.294 8.21709L68.698 8.65009C69.862 8.74309 70.334 10.1951 69.447 10.9551L65.33 14.4821L66.587 19.7551C66.858 20.8911 65.623 21.7881 64.627 21.1801L60 18.3541L55.373 21.1801C54.377 21.7881 53.142 20.8901 53.413 19.7551L54.67 14.4821L50.553 10.9551C49.666 10.1951 50.138 8.74309 51.302 8.65009L56.706 8.21709L58.788 3.21109V3.21009Z" fill="#FF912C"/>
<path fill-rule="evenodd" clip-rule="evenodd" d="M34.788 3.21009C35.236 2.13309 36.764 2.13309 37.212 3.21009L39.294 8.21709L44.698 8.65009C45.862 8.74309 46.334 10.1951 45.447 10.9551L41.33 14.4821L42.587 19.7551C42.858 20.8911 41.623 21.7881 40.627 21.1801L36 18.3541L31.373 21.1801C30.377 21.7881 29.142 20.8901 29.413 19.7551L30.67 14.4821L26.553 10.9551C25.666 10.1951 26.138 8.74309 27.302 8.65009L32.706 8.21709L34.788 3.21109V3.21009Z" fill="#FF912C"/>
<path fill-rule="evenodd" clip-rule="evenodd" d="M10.788 3.21009C11.236 2.13309 12.764 2.13309 13.212 3.21009L15.294 8.21709L20.698 8.65009C21.862 8.74309 22.334 10.1951 21.447 10.9551L17.33 14.4821L18.587 19.7551C18.858 20.8911 17.623 21.7881 16.627 21.1801L12 18.3541L7.373 21.1801C6.377 21.7881 5.142 20.8901 5.413 19.7551L6.67 14.4821L2.553 10.9551C1.666 10.1951 2.138 8.74309 3.302 8.65009L8.706 8.21709L10.788 3.21109V3.21009Z" fill="#FF912C"/>
</svg>
